<?xml version="1.0" standalone="no"?>
<svg xmlns="http://www.w3.org/2000/svg" viewBox="0 0 99.805 115.244" width="99.805" height="115.244"><polygon fill="#230f3d" points="99.805,28.811 99.805,86.43299999999999 49.9025,115.244 0,86.43299999999999 0,28.811 49.9025,0"></polygon><path fill="white" fill-rule="nonzero" d="M14.95 0.08Q16.60 0.08 17.81 0L17.81 0Q17.81 0.67 17.67 1.20L17.67 1.20Q16.86 1.40 16.37 2.16Q15.88 2.91 15.26 4.51L15.26 4.51Q12.49 11.62 9.41 19.07L9.41 19.07Q8.93 19.18 8.32 19.18L8.32 19.18Q5.07 10.42 2.52 4.42L2.52 4.42Q1.88 2.91 1.57 2.31Q1.26 1.71 0.97 1.48Q0.67 1.26 0.14 1.20L0.14 1.20Q0 0.64 0 0L0 0Q1.09 0.08 3.39 0.08L3.39 0.08Q5.18 0.08 6.78 0L6.78 0Q6.78 0.56 6.64 1.20L6.64 1.20Q5.68 1.26 5.28 1.47Q4.87 1.68 4.87 2.21L4.87 2.21Q4.87 2.83 5.52 4.28L5.52 4.28Q7.42 8.79 9.69 15.04L9.69 15.04Q12.12 9.49 13.86 4.62L13.86 4.62Q14.25 3.50 14.25 2.77L14.25 2.77Q14.25 2.07 13.89 1.69Q13.52 1.32 12.71 1.20L12.71 1.20Q12.57 0.67 12.57 0L12.57 0Q13.80 0.08 14.95 0.08L14.95 0.08Z" transform="translate(40.999, 23.5)"></path><g fill="white" color="white" transform="translate(27.902500000000003 50.68) scale(0.9361703)"><svg width="47.0" height="46.0" x="0.0" y="0.0" viewBox="0 0 47 46"><path fill="currentColor" fill-rule="nonzero" d="M44.78 1.64c-3.27-3.27-12.02-.08-21.36 7.22-9.34-7.3-18.09-10.5-21.36-7.22C-1.22 4.91 1.98 13.66 9.27 23 1.98 32.34-1.22 41.09 2.06 44.37c3.27 3.27 12.02.08 21.36-7.22 9.34 7.29 18.09 10.49 21.36 7.22 3.27-3.27.08-12.02-7.22-21.36 7.3-9.35 10.5-18.1 7.22-21.37zm-3.69 2.48c.69 0 .98.14 1.02.18.19.19.68 2.33-1.68 7.26-1.28 2.67-3.1 5.54-5.31 8.44-1.3-1.51-2.7-3.02-4.2-4.51-1.49-1.49-3-2.89-4.51-4.19 6.23-4.72 11.69-7.18 14.68-7.18zM32.71 23a80.65 80.65 0 0 1-9.29 9.29 82.406 82.406 0 0 1-4.84-4.45 80.65 80.65 0 0 1-4.45-4.83 79.34 79.34 0 0 1 4.45-4.84 84.12 84.12 0 0 1 4.83-4.46 79.34 79.34 0 0 1 9.3 9.29zM4.54 5.33c0-.69.14-.98.18-1.02.19-.19 2.33-.68 7.26 1.69 2.67 1.28 5.54 3.1 8.44 5.31a87.109 87.109 0 0 0-4.51 4.2c-1.49 1.49-2.89 3-4.19 4.51C7 13.78 4.54 8.32 4.54 5.33zm1.21 36.55c-.69 0-.99-.15-1.02-.18-.19-.19-.68-2.33 1.69-7.26 1.28-2.67 3.1-5.54 5.31-8.44 1.31 1.51 2.71 3.02 4.2 4.51 1.49 1.49 3 2.89 4.51 4.19-6.24 4.73-11.7 7.18-14.69 7.18zm36.55-1.21c0 .69-.15.98-.18 1.02-.19.19-2.33.68-7.26-1.68-2.67-1.28-5.54-3.1-8.44-5.31 1.51-1.3 3.02-2.7 4.51-4.2 1.49-1.49 2.89-3 4.2-4.51 4.71 6.23 7.17 11.69 7.17 14.68z"></path></svg></g></svg>